<?xml version="1.0" encoding="UTF-8"?>
<svg id="Capa_1" data-name="Capa 1" xmlns="http://www.w3.org/2000/svg" viewBox="0 0 530.74 695.03">
  <path d="M481.18,363.66h14.62c29.03,0,45.35-33.32,27.51-56.16L293.59,13.41c-13.93-17.84-40.96-17.88-54.95-.08L7.49,307.41c-17.94,22.83-1.64,56.25,27.44,56.25h14.91c13.14,0,20.5,15.09,12.39,25.4l-46.89,59.66c-17.94,22.83-1.64,56.25,27.45,56.25h.14c13.14,0,20.5,15.09,12.39,25.4l-23.29,29.64c-17.94,22.83-1.64,56.25,27.44,56.25H189.92c9.96,0,17.42,9.11,15.43,18.85l-3.72,18.19c-4.4,21.56,12.11,41.73,34.17,41.73h58.9c22.04,0,38.55-20.14,34.18-41.69l-3.71-18.25c-1.98-9.73,5.48-18.83,15.43-18.83h130.64c29.03,0,45.35-33.32,27.51-56.16l-23.24-29.76c-8.06-10.32-.69-25.36,12.42-25.36h0c29.03,0,45.35-33.32,27.51-56.17l-46.7-59.78c-8.06-10.32-.69-25.37,12.42-25.37Z" fill="#fff"/>
</svg>