<?xml version="1.0" encoding="UTF-8"?>
<svg id="Capa_1" data-name="Capa 1" xmlns="http://www.w3.org/2000/svg" viewBox="0 0 626.64 593.61">
  <path d="M124.76,448.87c3.49-41.85-10.47-83.95-38.26-115.5L3.05,238.68c-6.23-7.06-2.42-18.2,6.84-20l122.76-23.82c43.66-8.82,81.51-35.91,103.89-74.33L303.15,6.06c4.73-8.12,16.5-8.08,21.17,.08l65.42,114.38c22.37,38.43,60.23,65.52,103.88,74.33l123.22,24.9c9.24,1.87,12.96,13.03,6.68,20.05l-83.75,93.56c-27.79,31.55-41.75,73.65-38.29,115.5l10.92,131.02c.79,9.48-9.12,16.16-17.65,11.9l-111.73-55.92c-21.58-10.81-45.76-16.52-69.91-16.52s-48.3,5.71-69.88,16.52l-112.77,56.42c-8.56,4.28-18.5-2.47-17.64-11.98l11.92-131.44Z" fill="#fff"/>
</svg>